<?xml version="1.0" encoding="utf-8"?>
<!-- Generator: Adobe Illustrator 15.0.0, SVG Export Plug-In . SVG Version: 6.00 Build 0)  -->
<!DOCTYPE svg PUBLIC "-//W3C//DTD SVG 1.1//EN" "http://www.w3.org/Graphics/SVG/1.1/DTD/svg11.dtd">
<svg version="1.1" id="Capa_1" xmlns="http://www.w3.org/2000/svg" xmlns:xlink="http://www.w3.org/1999/xlink" x="0px" y="0px"
	 width="260px" height="70.5px" viewBox="0 0 260 70.5" enable-background="new 0 0 260 70.5" xml:space="preserve">
<g>
	<rect x="63.241" y="56.303" fill="#365E9D" width="35.185" height="7.118"/>
	<rect x="98.426" y="56.303" fill="#B8353B" width="50.698" height="7.118"/>
</g>
<g>
	<g>
		<path fill="#3F65A8" d="M81.971,45.459l-0.589-17.688h-0.087c-0.323,1.324-1.031,3.502-1.325,4.415l-4.236,13.273h-2.855
			l-4.003-13.303c-0.207-0.648-1.061-3.415-1.324-4.385h-0.089l-0.559,17.688h-2.149l0.766-19.867h3.914
			c0,0,4.386,14.421,5.062,17.6h0.059c0.765-3.15,5.356-17.6,5.356-17.6h3.737l0.765,19.867H81.971z"/>
		<path fill="#3F65A8" d="M90.213,38.896c0,3.561,1.825,5.121,4.562,5.121c1.855,0,3.504-0.853,4.473-1.441l0.562,1.589
			c-1.208,0.735-3.091,1.589-5.269,1.589c-3.945,0-6.563-2.62-6.563-7.594c0-4.561,2.236-7.416,6.182-7.416
			c4.06,0,5.767,3.267,5.767,6.888v1.265H90.213z M94.067,32.451c-2.736,0-3.854,2.413-3.854,4.886h7.534
			C97.747,34.835,96.895,32.451,94.067,32.451z"/>
		<path fill="#3F65A8" d="M110.668,32.981c-0.412-0.148-1.06-0.266-1.854-0.266c-1.384,0-2.501,0.794-3.237,1.56v11.185h-2.236
			V31.038h1.502l0.411,1.825c0.619-0.825,1.884-2.031,3.738-2.031c1.059,0,1.706,0.206,1.824,0.235L110.668,32.981z"/>
		<path fill="#3F65A8" d="M123.236,44.488c-0.883,0.5-2.708,1.266-4.798,1.266c-3.649,0-6.298-2.149-6.298-7.505
			c0-4.885,2.678-7.505,6.298-7.505c1.646,0,3.415,0.354,4.71,1.148L122.5,33.48c-1.12-0.647-2.473-0.942-3.944-0.942
			c-2.589,0-4.179,2.06-4.179,5.71c0,4.061,1.59,5.768,4.179,5.768c1.678,0,3.12-0.588,4.149-1.206L123.236,44.488z"/>
		<path fill="#3F65A8" d="M135.098,45.459l-0.383-1.855c-0.854,1.09-2.415,2.149-4.446,2.149c-2.941,0-4.648-1.972-4.648-4.416
			c0-2.5,1.825-4.12,5.092-4.12h3.737v-1.147c0-2.501-1.09-3.562-3.267-3.562c-1.824,0-3.297,0.472-4.355,0.942l-0.588-1.619
			c1.146-0.5,2.854-1.089,5.236-1.089c3.414,0,5.152,1.766,5.152,5.209v9.506H135.098z M134.449,38.749h-3.384
			c-2.443,0-3.269,1.061-3.269,2.502c0,1.737,0.942,2.884,3.033,2.884c1.412,0,2.765-0.824,3.619-1.795V38.749z"/>
		<path fill="#3F65A8" d="M149.96,43.722c-0.824,1.088-2.442,2.031-4.15,2.031c-3.414,0-5.798-2.532-5.798-7.534
			c0-4.386,2.179-7.476,6.033-7.476c1.796,0,3.031,0.588,3.854,1.237c-0.087-0.766-0.117-1.501-0.117-2.355v-4.473h2.236v20.307
			h-1.678L149.96,43.722z M149.782,33.48c-0.677-0.471-1.884-1.029-3.502-1.029c-2.707,0-4.002,2.118-4.002,5.769
			c0,3.561,1.147,5.856,3.854,5.856c1.295,0,2.472-0.56,3.649-1.825V33.48z"/>
		<path fill="#3F65A8" d="M167.768,38.22c0,4.855-2.357,7.534-6.212,7.534c-3.914,0-6.151-2.62-6.151-7.534
			c0-4.239,2.002-7.476,6.151-7.476C165.559,30.744,167.768,33.922,167.768,38.22z M165.471,38.22c0-3.768-1.268-5.799-3.915-5.799
			c-2.707,0-3.885,2.12-3.885,5.799c0,3.53,1.03,5.856,3.885,5.856C164.352,44.076,165.471,42.074,165.471,38.22z"/>
		<path fill="#3F65A8" d="M176.388,37.865h-2.97v7.594h-2.237V25.593h5.207c3.888,0,7.123,1.855,7.123,5.916
			C183.511,35.659,180.48,37.865,176.388,37.865z M176.243,27.506h-2.825v8.506h2.825c3.03,0,4.855-1.443,4.855-4.444
			C181.099,28.772,179.098,27.506,176.243,27.506z"/>
		<path fill="#3F65A8" d="M195.49,45.459l-0.323-1.649c-0.706,0.795-2.296,1.943-4.473,1.943c-3.209,0-4.975-1.913-4.975-5.857
			v-8.858h2.237v8.711c0,2.973,0.941,4.209,3.266,4.209c1.383,0,2.649-0.647,3.562-1.413V31.038h2.267v14.421H195.49z
			 M188.222,28.801l-0.325-1.324l6.505-2.413l0.442,1.677L188.222,28.801z"/>
		<path fill="#3F65A8" d="M202.761,32.686c0.972-1.06,2.647-1.942,4.298-1.942c3.677,0,5.591,2.62,5.591,7.476
			c0,5.091-2.53,7.534-6.004,7.534c-1.855,0-3.148-0.795-4.18-1.854l-0.471,1.561h-1.235V25.152h2.236v5.591L202.761,32.686z
			 M202.996,42.428c0.912,0.941,2.207,1.648,3.502,1.648c2.532,0,3.885-1.707,3.885-5.856c0-3.797-1.117-5.769-3.737-5.769
			c-1.383,0-2.795,0.735-3.649,1.619V42.428z"/>
		<path fill="#3F65A8" d="M216.181,41.486V25.152h2.209V42.31c0,1.236,0.559,1.737,2.148,1.737h0.472v1.53
			c0,0-0.707,0.176-1.413,0.176C216.859,45.753,216.181,44.193,216.181,41.486z"/>
		<path fill="#3F65A8" d="M224.952,45.459V32.833l-1.589-0.324v-1.471h3.768v14.421H224.952z M224.746,25.358h2.385v2.354h-2.385
			V25.358z"/>
		<path fill="#3F65A8" d="M241.697,44.488c-0.882,0.5-2.707,1.266-4.796,1.266c-3.649,0-6.299-2.149-6.299-7.505
			c0-4.885,2.68-7.505,6.299-7.505c1.647,0,3.413,0.354,4.708,1.148l-0.646,1.589c-1.119-0.647-2.472-0.942-3.944-0.942
			c-2.59,0-4.178,2.06-4.178,5.71c0,4.061,1.588,5.768,4.178,5.768c1.679,0,3.121-0.588,4.15-1.206L241.697,44.488z"/>
		<path fill="#3F65A8" d="M256.502,38.22c0,4.855-2.354,7.534-6.209,7.534c-3.915,0-6.151-2.62-6.151-7.534
			c0-4.239,2.001-7.476,6.151-7.476C254.295,30.744,256.502,33.922,256.502,38.22z M254.208,38.22c0-3.768-1.268-5.799-3.915-5.799
			c-2.71,0-3.885,2.12-3.885,5.799c0,3.53,1.029,5.856,3.885,5.856C253.088,44.076,254.208,42.074,254.208,38.22z"/>
	</g>
</g>
<g>
	<g>
		<g>
			<path fill="#8CA3CB" d="M70.212,19.636c-3.175,0-4.763-2.416-4.763-6.057c0-3.762,1.829-5.935,4.797-5.935
				c1.415,0,2.743,0.345,3.59,0.949l-0.519,1.07c-0.673-0.518-1.863-0.846-3.002-0.846c-2.382,0-3.485,1.898-3.485,4.711
				c0,3.002,1.155,4.935,3.451,4.935c1.276,0,2.381-0.483,3.208-1.105l0.414,1.07C72.921,19.119,71.712,19.636,70.212,19.636z"/>
			<path fill="#8996C0" d="M70.212,19.687c-3.06,0-4.814-2.226-4.814-6.108c0-3.749,1.812-5.987,4.849-5.987
				c1.447,0,2.766,0.35,3.618,0.958L73.9,8.576l-0.564,1.166l-0.05-0.039c-0.66-0.507-1.825-0.835-2.971-0.835
				c-2.216,0-3.435,1.655-3.435,4.66c0,3.104,1.24,4.883,3.4,4.883c1.422,0,2.513-0.595,3.178-1.094l0.055-0.041l0.452,1.17
				l-0.033,0.023C72.767,19.289,71.551,19.687,70.212,19.687z M70.246,7.696c-2.972,0-4.745,2.199-4.745,5.883
				c0,3.816,1.717,6.005,4.711,6.005c1.304,0,2.49-0.385,3.628-1.176l-0.373-0.969c-0.683,0.5-1.774,1.075-3.186,1.075
				c-2.227,0-3.504-1.818-3.504-4.987c0-3.027,1.29-4.762,3.538-4.762c1.139,0,2.299,0.319,2.982,0.818l0.471-0.974
				C72.943,8.037,71.632,7.696,70.246,7.696z"/>
		</g>
		<g>
			<path fill="#8CA3CB" d="M75.527,19.464V7.558h1.31v3.399c0,0.345-0.05,0.88-0.119,1.07c0.466-0.5,1.311-1.19,2.553-1.19
				c2.07,0,2.917,1.156,2.917,3.295v5.332h-1.347v-5.108c0-1.57-0.621-2.485-1.933-2.485c-0.88,0-1.552,0.5-2.071,0.967v6.625
				H75.527z"/>
			<path fill="#8996C0" d="M82.238,19.515h-1.449v-5.159c0-1.592-0.649-2.434-1.881-2.434c-0.853,0-1.498,0.472-2.019,0.938v6.654
				h-1.414V7.506h1.414v3.45c0,0.27-0.031,0.647-0.078,0.897c0.71-0.7,1.557-1.068,2.459-1.068c2.025,0,2.968,1.063,2.968,3.347
				V19.515z M80.893,19.412h1.242v-5.28c0-2.213-0.909-3.244-2.864-3.244c-0.931,0-1.801,0.406-2.515,1.174l-0.174,0.186
				l0.087-0.239c0.065-0.181,0.118-0.714,0.118-1.052V7.609h-1.209v11.803h1.209v-6.597l0.016-0.016
				c0.508-0.456,1.205-0.979,2.105-0.979c1.298,0,1.984,0.877,1.984,2.536V19.412z"/>
		</g>
		<g>
			<path fill="#8CA3CB" d="M84.897,19.464v-7.402l-0.933-0.19v-0.863h2.209v8.456H84.897z M84.776,7.678h1.397v1.381h-1.397V7.678z"
				/>
			<path fill="#8996C0" d="M86.225,19.515h-1.379v-7.412l-0.932-0.19v-0.956h2.311V19.515z M84.948,19.412h1.175V11.06h-2.106v0.77
				l0.932,0.19V19.412z M86.225,9.11h-1.5V7.626h1.5V9.11z M84.828,9.008h1.295V7.729h-1.295V9.008z"/>
		</g>
		<g>
			<path fill="#8CA3CB" d="M88.537,17.134V7.558h1.295v10.06c0,0.725,0.328,1.018,1.26,1.018h0.275v0.897
				c0,0-0.413,0.104-0.826,0.104C88.935,19.636,88.537,18.721,88.537,17.134z"/>
			<path fill="#8996C0" d="M90.541,19.687c-1.706,0-2.055-1.021-2.055-2.553V7.506h1.396v10.111c0,0.714,0.316,0.966,1.209,0.966
				h0.327v0.989l-0.039,0.01C91.362,19.586,90.954,19.687,90.541,19.687z M88.59,7.609v9.525c0,1.47,0.331,2.45,1.951,2.45
				c0.329,0,0.663-0.068,0.775-0.093v-0.805h-0.225c-0.943,0-1.312-0.3-1.312-1.069V7.609H88.59z"/>
		</g>
		<g>
			<path fill="#8CA3CB" d="M94.042,15.616c0,2.087,1.07,3.001,2.675,3.001c1.088,0,2.053-0.5,2.623-0.845l0.327,0.931
				c-0.706,0.432-1.812,0.932-3.088,0.932c-2.312,0-3.848-1.536-3.848-4.451c0-2.675,1.311-4.348,3.624-4.348
				c2.381,0,3.381,1.915,3.381,4.037v0.743H94.042z M96.302,11.837c-1.604,0-2.26,1.415-2.26,2.864h4.418
				C98.46,13.234,97.959,11.837,96.302,11.837z"/>
			<path fill="#8996C0" d="M96.579,19.687c-2.442,0-3.9-1.683-3.9-4.502c0-2.755,1.374-4.399,3.677-4.399
				c2.53,0,3.433,2.112,3.433,4.088v0.794h-5.693c0.016,1.897,0.922,2.899,2.622,2.899c0.805,0,1.679-0.282,2.597-0.838l0.054-0.033
				l0.362,1.03l-0.034,0.022C98.991,19.176,97.881,19.687,96.579,19.687z M96.355,10.888c-2.238,0-3.573,1.606-3.573,4.297
				c0,2.754,1.419,4.4,3.797,4.4c1.256,0,2.333-0.486,3.026-0.903l-0.294-0.833c-0.914,0.544-1.786,0.821-2.595,0.821
				c-1.758,0-2.726-1.085-2.726-3.054v-0.052h5.694v-0.691C99.686,12.947,98.811,10.888,96.355,10.888z M98.511,14.753h-4.52v-0.052
				c0-1.345,0.605-2.916,2.311-2.916c1.923,0,2.209,1.826,2.209,2.916V14.753z M94.095,14.649h4.313
				c-0.009-1.055-0.304-2.761-2.106-2.761C94.695,11.888,94.109,13.305,94.095,14.649z"/>
		</g>
		<g>
			<path fill="#8CA3CB" d="M106.26,19.636c-3.174,0-4.762-2.416-4.762-6.057c0-3.762,1.828-5.935,4.796-5.935
				c1.415,0,2.744,0.345,3.589,0.949l-0.517,1.07c-0.674-0.518-1.864-0.846-3.003-0.846c-2.382,0-3.485,1.898-3.485,4.711
				c0,3.002,1.156,4.935,3.451,4.935c1.276,0,2.382-0.483,3.209-1.105l0.414,1.07C108.969,19.119,107.761,19.636,106.26,19.636z"/>
			<path fill="#8996C0" d="M106.26,19.687c-3.06,0-4.814-2.226-4.814-6.108c0-3.749,1.813-5.987,4.849-5.987
				c1.447,0,2.766,0.35,3.619,0.958l0.035,0.025l-0.563,1.166l-0.051-0.039c-0.66-0.507-1.826-0.835-2.971-0.835
				c-2.214,0-3.434,1.655-3.434,4.66c0,3.104,1.238,4.883,3.399,4.883c1.422,0,2.513-0.595,3.178-1.094l0.055-0.041l0.453,1.17
				l-0.032,0.023C108.814,19.289,107.599,19.687,106.26,19.687z M106.294,7.696c-2.971,0-4.745,2.199-4.745,5.883
				c0,3.816,1.717,6.005,4.711,6.005c1.304,0,2.491-0.385,3.631-1.176l-0.377-0.969c-0.681,0.5-1.772,1.075-3.185,1.075
				c-2.226,0-3.502-1.818-3.502-4.987c0-3.027,1.288-4.762,3.536-4.762c1.138,0,2.299,0.319,2.983,0.818l0.472-0.974
				C108.98,8.028,107.7,7.696,106.294,7.696z"/>
		</g>
		<g>
			<path fill="#8CA3CB" d="M117.925,15.218c0,2.847-1.38,4.417-3.64,4.417c-2.295,0-3.607-1.536-3.607-4.417
				c0-2.484,1.175-4.382,3.607-4.382C116.631,10.836,117.925,12.7,117.925,15.218z M116.579,15.218c0-2.209-0.741-3.398-2.294-3.398
				c-1.588,0-2.278,1.242-2.278,3.398c0,2.071,0.604,3.434,2.278,3.434C115.924,18.652,116.579,17.479,116.579,15.218z"/>
			<path fill="#8996C0" d="M114.285,19.687c-2.359,0-3.658-1.587-3.658-4.469c0-2.734,1.4-4.433,3.658-4.433
				c2.242,0,3.691,1.74,3.691,4.433C117.977,18.059,116.631,19.687,114.285,19.687z M114.285,10.888
				c-2.227,0-3.556,1.619-3.556,4.331c0,2.815,1.263,4.366,3.556,4.366c2.28,0,3.589-1.592,3.589-4.366
				C117.874,12.588,116.465,10.888,114.285,10.888z M114.285,18.704c-1.567,0-2.329-1.14-2.329-3.485c0-2.29,0.782-3.45,2.329-3.45
				c1.556,0,2.345,1.161,2.345,3.45C116.63,17.596,115.885,18.704,114.285,18.704z M114.285,11.871
				c-1.478,0-2.228,1.126-2.228,3.347c0,2.276,0.729,3.382,2.228,3.382c1.551,0,2.243-1.043,2.243-3.382
				C116.528,12.998,115.773,11.871,114.285,11.871z"/>
		</g>
		<g>
			<path fill="#8CA3CB" d="M126.484,14.132v5.332h-1.328v-5.108c0-1.605-0.468-2.485-1.899-2.485c-0.896,0-1.518,0.5-2.036,0.967
				v6.625h-1.311v-8.456h0.861l0.276,1.018c0.484-0.5,1.329-1.19,2.571-1.19c1.26,0,2.07,0.448,2.485,1.293
				c0.482-0.535,1.415-1.293,2.64-1.293c2.069,0,2.985,1.156,2.985,3.295v5.332H130.4v-5.108c0-1.605-0.603-2.485-2.036-2.485
				c-0.794,0-1.5,0.466-2.019,0.967C126.449,13.217,126.484,13.648,126.484,14.132z"/>
			<path fill="#8996C0" d="M131.78,19.515h-1.431v-5.159c0-1.66-0.63-2.434-1.985-2.434c-0.811,0-1.511,0.501-1.96,0.931
				c0.09,0.345,0.132,0.752,0.132,1.278v5.383h-1.433v-5.159c0-1.706-0.552-2.434-1.847-2.434c-0.861,0-1.453,0.461-1.982,0.938
				v6.654h-1.416v-8.558h0.954l0.263,0.969c0.758-0.757,1.612-1.141,2.544-1.141c1.218,0,2.057,0.422,2.497,1.255
				c0.393-0.417,1.339-1.255,2.628-1.255c2.044,0,3.036,1.095,3.036,3.347V19.515z M130.451,19.412h1.226v-5.28
				c0-2.183-0.958-3.244-2.933-3.244c-1.308,0-2.255,0.893-2.603,1.277l-0.051,0.057l-0.033-0.068
				c-0.411-0.839-1.231-1.265-2.438-1.265c-0.928,0-1.781,0.396-2.534,1.174l-0.062,0.065l-0.29-1.068h-0.771v8.353h1.209v-6.597
				l0.018-0.016c0.525-0.474,1.162-0.979,2.069-0.979c1.366,0,1.95,0.758,1.95,2.536v5.056h1.226v-5.28
				c0-0.531-0.044-0.938-0.136-1.28l-0.009-0.03l0.022-0.021c0.463-0.447,1.195-0.981,2.054-0.981c1.403,0,2.087,0.83,2.087,2.536
				V19.412z"/>
		</g>
		<g>
			<path fill="#8CA3CB" d="M135.113,20.033v2.708h-1.329V11.008h1.018l0.208,1c0.586-0.655,1.484-1.172,2.468-1.172
				c2.155,0,3.227,1.535,3.227,4.382c0,2.985-1.484,4.417-3.504,4.417c-1.018,0-1.673-0.362-2.278-0.966
				C134.922,18.67,135.113,19.498,135.113,20.033z M135.113,17.738c0.518,0.535,1.224,0.914,2.002,0.914c1.534,0,2.26-1,2.26-3.434
				c0-2.226-0.638-3.364-2.175-3.364c-0.826,0-1.588,0.465-2.087,0.984V17.738z"/>
			<path fill="#8996C0" d="M135.164,22.793h-1.431V10.957h1.11l0.196,0.943c0.662-0.701,1.564-1.115,2.438-1.115
				c2.144,0,3.277,1.533,3.277,4.433c0,2.798-1.329,4.469-3.555,4.469c-0.879,0-1.542-0.26-2.192-0.863
				c0.055,0.271,0.156,0.813,0.156,1.209V22.793z M133.835,22.69h1.226v-2.657c0-0.523-0.187-1.344-0.187-1.352l-0.042-0.175
				l0.127,0.127c0.667,0.667,1.337,0.951,2.241,0.951c2.16,0,3.451-1.633,3.451-4.366c0-2.874-1.069-4.331-3.174-4.331
				c-0.873,0-1.782,0.432-2.431,1.156l-0.067,0.076l-0.219-1.06h-0.926V22.69z M137.115,18.704c-0.736,0-1.459-0.331-2.038-0.93
				l-0.017-0.015v-4.942l0.017-0.015c0.288-0.3,1.077-1,2.123-1c1.519,0,2.228,1.085,2.228,3.416
				C139.428,17.629,138.715,18.704,137.115,18.704z M135.164,17.717c0.559,0.57,1.249,0.884,1.951,0.884
				c1.527,0,2.209-1.043,2.209-3.382c0-2.26-0.675-3.312-2.124-3.312c-0.99,0-1.742,0.654-2.036,0.953V17.717z"/>
		</g>
		<g>
			<path fill="#8CA3CB" d="M147.003,12.147c-0.242-0.086-0.621-0.155-1.087-0.155c-0.812,0-1.468,0.466-1.897,0.915v6.557h-1.313
				v-8.456h0.882l0.24,1.07c0.362-0.483,1.104-1.19,2.192-1.19c0.619,0,1,0.121,1.069,0.138L147.003,12.147z"/>
			<path fill="#8996C0" d="M144.069,19.515h-1.415v-8.558h0.972l0.229,1.003c0.318-0.396,1.055-1.124,2.165-1.124
				c0.57,0,0.935,0.099,1.055,0.132l0.069,0.017l-0.095,1.232l-0.064-0.022c-0.272-0.097-0.662-0.152-1.068-0.152
				c-0.814,0-1.452,0.478-1.847,0.884V19.515z M142.756,19.412h1.21v-6.526l0.014-0.015c0.408-0.425,1.075-0.931,1.937-0.931
				c0.388,0,0.762,0.049,1.041,0.137l0.076-1.013c-0.13-0.035-0.478-0.125-1.014-0.125c-1.149,0-1.888,0.818-2.151,1.17
				l-0.066,0.089l-0.257-1.139h-0.789V19.412z"/>
		</g>
		<g>
			<path fill="#8CA3CB" d="M153.611,19.464l-0.227-1.087c-0.498,0.638-1.412,1.259-2.604,1.259c-1.727,0-2.726-1.156-2.726-2.588
				c0-1.467,1.068-2.416,2.984-2.416h2.19v-0.673c0-1.467-0.637-2.088-1.916-2.088c-1.068,0-1.932,0.276-2.553,0.552l-0.344-0.949
				c0.672-0.294,1.674-0.638,3.069-0.638c2.004,0,3.021,1.035,3.021,3.054v5.574H153.611z M153.23,15.529h-1.982
				c-1.434,0-1.916,0.621-1.916,1.466c0,1.019,0.552,1.691,1.777,1.691c0.828,0,1.622-0.483,2.121-1.053V15.529z"/>
			<path fill="#8996C0" d="M150.781,19.687c-1.637,0-2.776-1.085-2.776-2.639c0-1.545,1.133-2.467,3.035-2.467h2.14v-0.621
				c0-1.409-0.575-2.037-1.865-2.037c-0.863,0-1.715,0.185-2.529,0.548l-0.051,0.022l-0.381-1.047l0.044-0.019
				c0.632-0.276,1.641-0.642,3.09-0.642c2.038,0,3.072,1.044,3.072,3.105v5.625h-0.99l-0.212-1.022
				C152.728,19.243,151.774,19.687,150.781,19.687z M151.04,14.684c-1.837,0-2.934,0.884-2.934,2.364
				c0,1.517,1.075,2.537,2.675,2.537c1.478,0,2.336-0.949,2.564-1.24l0.069-0.087l0.237,1.155h0.804V13.89
				c0-1.993-0.997-3.002-2.969-3.002c-1.396,0-2.379,0.345-3.005,0.615l0.31,0.852c0.814-0.355,1.664-0.534,2.522-0.534
				c1.344,0,1.969,0.68,1.969,2.14v0.724H151.04z M151.109,18.738c-1.18,0-1.828-0.619-1.828-1.743c0-1.007,0.66-1.518,1.967-1.518
				h2.035v2.176l-0.014,0.015C152.814,18.186,152.01,18.738,151.109,18.738z M151.248,15.581c-1.237,0-1.863,0.476-1.863,1.415
				c0,1.058,0.612,1.64,1.725,1.64c0.856,0,1.627-0.524,2.07-1.021v-2.034H151.248z"/>
		</g>
	</g>
</g>
<path fill-rule="evenodd" clip-rule="evenodd" fill="#3F65A8" d="M26.224,22.721l10.678-2.703c2.68-0.235,5.042,1.746,5.278,4.425
	l2.898,33.134c0.235,2.68-1.747,5.041-4.429,5.275l-30.139,0.193c-2.68,0.234-5.042-1.747-5.277-4.425L2.971,32.76
	c-0.235-2.679,1.749-5.041,4.429-5.274L22.71,23.61l0.739,3.731l-12.774,2.508c-2.352,0.208-4.091,2.278-3.886,4.627l1.772,20.271
	c0.207,2.352,2.28,4.09,4.632,3.883l23.952-0.767c2.352-0.204,4.092-2.275,3.887-4.626L38.839,28.2
	c-0.204-2.35-1.399-3.352-3.75-3.145l-8.05,1.581L26.224,22.721z"/>
<path fill-rule="evenodd" clip-rule="evenodd" fill="#B2C1DC" d="M39.8,39.167l-8.898,2.629c-2.67,0.328-5.101-1.57-5.428-4.238
	l-4.559-22.997c-0.328-2.668,1.573-5.097,4.244-5.427l22.484-1.622c2.67-0.33,5.098,1.568,5.426,4.237l2.807,18.497
	c0.328,2.668-1.573,5.099-4.242,5.428l-8.259,2.438l-0.305-3.497l5.543-1.486c2.277-0.283,3.897-2.352,3.618-4.628l-1.683-14.308
	c-0.278-2.276-1.994-3.165-4.272-2.885l-17.707,0.675c-2.276,0.278-3.895,2.35-3.616,4.625L28.5,33.666
	c0.28,2.275,2.351,3.893,4.627,3.613l6.357-1.704L39.8,39.167z"/>
</svg>
